# xmcd
#
# Track frame offsets: 
#        150
#        26025
#        38394
#        49906
#        61929
#        70011
#        80856
#        93247
#        105477
#        119807
#        133963
#        145894
#        156975
#        167281
#        177552
#        185849
#        198800
#
# Disc length: 2778 seconds
#
# Revision: 0
# Processed by: cddbd v1.5.2PL0 Copyright (c) Steve Scherf et al.
# Submitted via: ExactAudioCopy v0.99pb5
#
DISCID=f20ad811
DTITLE=Versch - Somethin' Swinging
DYEAR=2010
DGENRE=A Cappella
TTITLE0=Mr. Bojangles
TTITLE1=Gentle on my mind - Dean Martin
TTITLE2=Perhaps, perhaps, perhaps - Doris Day
TTITLE3=Magic moments - Perry Como
TTITLE4=Gonna get along without you - Trini Lopez
TTITLE5=King of the road - Roger Miller
TTITLE6=Let there be love - Nat King Cole
TTITLE7=Things - Nancy Sinatra and Dean Martin
TTITLE8=Can't take my eyes of you - Andy Williams
TTITLE9=Downtown - Petula Clark
TTITLE10=Sway - Perez Prado feat. Rosemary Clooney
TTITLE11=The lady is a tramp - Tony Benett
TTITLE12=Wonderful world - Louis Armstrong
TTITLE13=Memories are made of this - Dean Martin
TTITLE14=I love Paris - Frank Sinatra
TTITLE15=Witchcraft - Frank Sinatra
TTITLE16=She's not you - Elvis
EXTD=
EXTT0=
EXTT1=
EXTT2=
EXTT3=
EXTT4=
EXTT5=
EXTT6=
EXTT7=
EXTT8=
EXTT9=
EXTT10=
EXTT11=
EXTT12=
EXTT13=
EXTT14=
EXTT15=
EXTT16=
PLAYORDER=
